<?xml version="1.0" standalone="no"?>
<!DOCTYPE svg PUBLIC "-//W3C//DTD SVG 20010904//EN"
 "http://www.w3.org/TR/2001/REC-SVG-20010904/DTD/svg10.dtd">
<svg version="1.0" xmlns="http://www.w3.org/2000/svg"
 width="810.000000pt" height="810.000000pt" viewBox="0 0 810.000000 810.000000"
 preserveAspectRatio="xMidYMid meet">
<metadata>
Created by potrace 1.14, written by Peter Selinger 2001-2017
</metadata>
<g transform="translate(0.000000,810.000000) scale(0.100000,-0.100000)"
fill="#000000" stroke="none">
<path d="M3849 8046 c-3 -3 -43 -8 -89 -11 -93 -7 -118 -9 -200 -20 -30 -4
-68 -9 -85 -10 -16 -2 -31 -4 -32 -5 -7 -6 -144 -25 -155 -22 -5 1 -8 -3 -8
-9 0 -5 -4 -8 -8 -5 -4 2 -42 -4 -85 -13 -42 -10 -77 -16 -77 -13 0 2 -7 -1
-15 -8 -8 -7 -15 -10 -15 -7 0 3 -30 -3 -67 -14 -38 -11 -76 -22 -86 -24 -36
-8 -203 -69 -282 -102 -147 -63 -350 -183 -363 -215 -2 -4 -8 -8 -13 -8 -22 0
-189 -194 -189 -219 0 -5 -6 -16 -12 -23 -7 -7 -19 -29 -27 -48 -59 -152 -60
-311 -5 -502 7 -23 -12 -23 -36 0 -32 30 -182 101 -250 118 -66 17 -200 22
-255 10 -16 -4 -48 -12 -70 -18 -22 -7 -42 -12 -45 -13 -3 0 -27 -11 -54 -23
-27 -12 -50 -22 -53 -22 -5 0 -136 -82 -143 -90 -3 -3 -32 -27 -65 -55 -58
-49 -165 -152 -165 -159 0 -3 -16 -22 -35 -43 -20 -21 -42 -45 -49 -53 -8 -8
-50 -67 -95 -130 -45 -63 -84 -120 -89 -126 -7 -10 -19 -31 -45 -76 -6 -13
-14 -25 -17 -28 -9 -8 -107 -183 -124 -221 -9 -19 -20 -41 -25 -49 -6 -8 -29
-55 -51 -105 -23 -49 -49 -108 -59 -130 -10 -22 -31 -71 -45 -110 -15 -38 -31
-79 -36 -90 -11 -27 -23 -58 -25 -70 -2 -5 -13 -39 -25 -75 -12 -36 -23 -73
-25 -83 -2 -10 -7 -27 -10 -37 -3 -10 -8 -28 -10 -39 -10 -46 -13 -58 -24 -96
-5 -22 -13 -53 -15 -70 -3 -16 -8 -41 -11 -55 -3 -14 -8 -41 -12 -60 -4 -19
-8 -37 -8 -40 -1 -3 -5 -32 -10 -65 -5 -33 -10 -62 -10 -65 -1 -3 -5 -32 -9
-65 -5 -33 -10 -68 -12 -78 -24 -135 -25 -676 0 -747 2 -8 7 -33 10 -55 11
-82 66 -265 88 -289 4 -6 8 -18 8 -28 0 -10 4 -18 9 -18 5 0 11 -8 14 -17 14
-43 56 -100 127 -172 69 -70 95 -90 151 -118 93 -46 200 -71 322 -76 30 -1 47
-6 47 -14 0 -7 -4 -13 -9 -13 -4 0 -46 -37 -93 -82 -108 -106 -176 -225 -194
-337 -25 -161 -1 -338 67 -506 34 -82 113 -235 121 -235 4 0 8 -6 8 -14 0 -8
11 -28 25 -44 13 -16 22 -32 18 -36 -3 -3 -2 -6 3 -6 5 0 18 -16 28 -35 11
-19 23 -35 28 -35 4 0 8 -5 8 -10 0 -14 150 -201 241 -302 150 -166 324 -330
479 -455 36 -29 74 -60 85 -70 29 -27 275 -189 307 -204 16 -7 28 -16 28 -21
0 -4 4 -8 10 -8 5 0 33 -14 62 -31 58 -35 260 -137 378 -192 86 -40 344 -137
363 -137 8 0 17 -3 21 -7 3 -4 12 -8 19 -9 7 -1 46 -11 87 -22 41 -11 89 -22
105 -25 17 -3 41 -8 55 -11 14 -4 41 -8 60 -9 19 -2 40 -6 45 -9 6 -3 80 -5
165 -3 178 3 265 21 390 83 134 66 251 203 316 371 12 31 26 57 31 58 8 3 21
-23 23 -45 0 -10 78 -155 101 -188 29 -42 87 -103 131 -137 38 -31 191 -101
238 -110 14 -3 36 -8 50 -12 107 -27 344 -19 500 16 25 6 56 13 70 15 89 17
306 90 465 156 132 55 422 201 525 264 36 22 76 47 90 55 34 20 210 139 220
149 3 3 32 25 65 50 33 25 69 55 81 67 12 13 24 23 27 23 15 0 312 289 438
425 61 67 194 236 244 310 22 33 43 62 46 65 26 20 170 310 198 400 57 179 63
378 16 505 -14 39 -29 78 -32 88 -3 9 -9 17 -14 17 -5 0 -9 7 -9 15 0 8 -4 15
-10 15 -5 0 -10 6 -10 13 0 15 -117 138 -172 181 -21 16 -35 32 -33 36 2 3 25
7 52 8 279 13 478 140 601 386 40 78 85 196 76 196 -3 0 0 8 5 18 5 9 12 33
15 53 3 20 8 42 11 50 5 14 9 47 23 164 3 33 6 150 7 260 0 177 -4 261 -19
385 -3 19 -7 53 -10 76 -2 22 -7 56 -10 75 -11 66 -16 95 -26 159 -6 36 -15
81 -20 100 -5 19 -11 46 -14 60 -3 14 -8 36 -11 50 -4 14 -8 34 -10 45 -1 11
-10 43 -18 70 -13 45 -36 123 -43 150 -6 24 -65 176 -94 245 -17 41 -36 88
-42 104 -16 43 -151 310 -198 391 -22 39 -48 85 -57 103 -9 17 -20 32 -25 32
-4 0 -8 6 -8 13 -1 12 -140 214 -195 281 -126 154 -228 255 -330 326 -27 19
-52 38 -55 42 -11 14 -169 87 -225 103 -133 39 -256 39 -380 -2 -50 -16 -157
-70 -207 -105 -33 -23 -51 -23 -44 0 5 16 18 71 32 132 8 32 8 197 1 230 -20
90 -75 218 -99 228 -4 2 -8 10 -8 18 0 8 -42 56 -93 107 -103 101 -103 101
-168 143 -24 16 -46 31 -49 34 -3 3 -41 23 -85 45 -44 22 -81 43 -83 48 -2 4
-9 7 -15 7 -7 0 -43 13 -82 29 -99 40 -251 91 -273 91 -10 0 -22 4 -27 9 -10
8 -175 48 -275 67 -14 2 -36 7 -50 10 -45 11 -65 14 -105 19 -22 2 -51 7 -65
10 -14 3 -47 7 -75 10 -27 2 -68 7 -90 10 -22 3 -60 8 -85 10 -59 7 -505 16
-511 11z"/>
</g>
</svg>
